<svg xmlns="http://www.w3.org/2000/svg" viewBox="0 0 141.73 140.55"><defs><style>.cls-1{fill:#3c3c3b;}.cls-2{fill:#fff;}.cls-3{fill:#dadada;}.cls-4{fill:#1d1d1b;}.cls-5{fill:#010101;}.cls-6{fill:#eeeded;}.cls-7{fill:#f39208;}</style></defs><g id="Layer_2" data-name="Layer 2"><g id="Layer_1-2" data-name="Layer 1"><ellipse class="cls-1" cx="70.87" cy="70.28" rx="70.87" ry="70.28"/><g id="standart_bot" data-name="standart bot"><circle class="cls-2" cx="70.14" cy="44.44" r="32.96"/><path class="cls-3" d="M48.68,125.05c-1.23,3.36-3.24,4.41-4.07,0-.4-2.13-3-9.12-4.52-17C38.5,99.64,38,90.33,37.51,88.41c-1-3.75,18.33-7.61,22.32-5.29S49.91,121.7,48.68,125.05Z"/><path class="cls-2" d="M101.63,87.1c0,2.59-6.06,13.09-6.06,13.09-5.11,10.48-11.26,20.72-20.36,24.47a20,20,0,0,1-11.81,1.47,16.06,16.06,0,0,1-4.1-1.47C53.75,121.81,51,116.8,46.92,109A95.19,95.19,0,0,1,41.6,96.73c-1-2.88-1.73-5.8-3.16-11.66a20.93,20.93,0,0,1-.87-7.64s-.09-6.48,2.85-7,12.86,9.68,18.32,12.16c6.05,2.73,15.54,2.3,21,0s8.22-6,16-9.07S103.78,79.89,101.63,87.1Z"/><ellipse class="cls-4" cx="64.17" cy="96.33" rx="6.82" ry="7.7"/><path class="cls-5" d="M80.6,61.69H77.24a1.06,1.06,0,0,1-1.06-1.07v-14a1.06,1.06,0,0,1,1.06-1.07H80.6a1.06,1.06,0,0,1,1.06,1.07v14A1.08,1.08,0,0,1,80.6,61.69Z"/><path class="cls-5" d="M56.3,61.69H53a1.07,1.07,0,0,1-1.07-1.07v-14A1.07,1.07,0,0,1,53,45.57H56.3a1.07,1.07,0,0,1,1.07,1.07v14A1.08,1.08,0,0,1,56.3,61.69Z"/><path class="cls-6" d="M94.14,130c-1.37,3.75-3.61,4.91-4.53,0-.45-2.38-3.36-10.18-5-19-1.79-9.35-2.33-19.74-2.88-21.88-1.08-4.17,20.44-8.49,24.9-5.9S95.51,126.23,94.14,130Z"/></g><g id="cool_bot" data-name="cool bot"><path class="cls-7" d="M68.18,44.62h39.05s.17-2.35.17-3.55c0-21-17.56-38-39.22-38Z"/><path class="cls-3" d="M48.83,124.72c-1.22,3.34-3.22,4.39-4,0-.4-2.12-3-9.08-4.5-17-1.58-8.33-2.07-17.61-2.57-19.52C36.75,84.51,56,80.66,59.93,83S50.06,121.39,48.83,124.72Z"/><circle class="cls-2" cx="70.2" cy="44.47" r="32.81"/><path class="cls-2" d="M101.54,86.94c0,2.57-6,13-6,13-5.09,10.42-11.21,20.62-20.27,24.36a20,20,0,0,1-11.77,1.46,16.21,16.21,0,0,1-4.07-1.46c-5.53-2.84-8.26-7.83-12.33-15.63a95.15,95.15,0,0,1-5.3-12.18c-1-2.87-1.72-5.78-3.14-11.62a20.91,20.91,0,0,1-.87-7.6s-.08-6.44,2.84-6.93S53.41,80,58.85,82.48c6,2.72,15.47,2.28,20.92,0s8.17-5.94,15.91-9S103.69,79.78,101.54,86.94Z"/><ellipse class="cls-7" cx="64.26" cy="96.14" rx="6.79" ry="7.66"/><path class="cls-6" d="M94.09,129.62c-1.36,3.73-3.6,4.89-4.51,0-.45-2.37-3.35-10.13-5-18.91-1.78-9.31-2.31-19.65-2.86-21.78-1.08-4.15,20.35-8.45,24.78-5.88S95.46,125.9,94.09,129.62Z"/><path class="cls-7" d="M90.23,17C76.93,12.21,68.4,29.41,68.4,29.41V5.2S103.54,21.86,90.23,17Z"/><path class="cls-7" d="M91.8,15.15C80,11,71.19,19.47,67,26.12a27.39,27.39,0,0,0-1.57,2.7l6.12.58V5.2L66.83,7.08C74,10.5,81.27,13.93,88.22,17.62c.29.15.64.34.12.05L89,18l1,.57c.24.14.45.3.69.44,0,0,.22.18.24.17s-.49-.46-.4-.35a1.57,1.57,0,0,1,0-2.09L91.66,16a4.08,4.08,0,0,1,1.8-.24c.43,0,.48,0,.23,0s-1-.33.09,0c-.65-.22-1.33-.41-2-.64-3.55-1.29-6.72,2.47-3.14,3.77A21.68,21.68,0,0,0,92,20c2.38.43,4.93-.87,4.22-2.71-.56-1.47-3.3-2.57-4.88-3.42C85.94,11,80.3,8.27,74.68,5.57L70,3.32c-2-.95-4.7.32-4.7,1.89v24.2c0,2.54,5,2.85,6.13.57.11-.22.24-.44.35-.66s.29-.5.44-.75c-.41.7.25-.39.37-.58a33.32,33.32,0,0,1,4-5.07l.68-.65c.22-.2.23-.22,0-.05l.37-.31c.48-.41,1-.82,1.52-1.2a16.27,16.27,0,0,1,1.66-1.07c-.51.29.37-.18.47-.23.3-.14.6-.27.91-.39s.63-.23,1-.33c-.67.21.35-.08.49-.11.34-.07.67-.12,1-.17s.35,0,0,0l.53,0c.36,0,.71,0,1.07,0s.36,0,0,0l.56.08c.39.08.76.14,1.14.24s.38.1.12,0l.59.2C92.23,20.17,95.4,16.4,91.8,15.15Z"/><rect class="cls-7" x="60.96" y="5.21" width="6.66" height="24.77"/><path class="cls-7" d="M61,32.21h6.66c1.94,0,3.59-1,3.59-2.24V5.21C71.21,4,69.56,3,67.62,3H61C59,3,57.37,4,57.37,5.21V30c0,2.88,7.18,2.88,7.18,0V5.21L61,7.44h6.66L64,5.21V30l3.59-2.23H61C56.34,27.74,56.34,32.21,61,32.21Z"/><ellipse class="cls-5" cx="47.06" cy="53.13" rx="11.24" ry="7.15"/><ellipse class="cls-5" cx="71.91" cy="53.13" rx="13.61" ry="7.15"/><path class="cls-5" d="M84.44,46H36.9A1.07,1.07,0,0,0,35.82,47v5.8a1.08,1.08,0,0,0,1.08,1.08H84.44a1.08,1.08,0,0,0,1.08-1.08V47A1.09,1.09,0,0,0,84.44,46Z"/></g></g></g></svg>