<svg xmlns="http://www.w3.org/2000/svg" viewBox="0 0 141.73 140.55"><defs><style>.cls-1{fill:#3c3c3b;}.cls-2{fill:#fff;}.cls-3{fill:#dadada;}.cls-4{fill:#b1804a;}.cls-5{fill:#010101;}.cls-6{fill:#eeeded;}.cls-7{fill:#ca9e67;}.cls-8{fill:#442a19;}.cls-9{fill:none;stroke:#010101;stroke-miterlimit:10;}.cls-10{fill:#ffde0d;}.cls-11{fill:#fab334;}</style></defs><g id="Layer_2" data-name="Layer 2"><g id="Layer_1-2" data-name="Layer 1"><ellipse class="cls-1" cx="70.87" cy="70.28" rx="70.87" ry="70.28"/><g id="drunk_robot" data-name="drunk robot"><circle class="cls-2" cx="70.1" cy="44.6" r="32.57"/><path class="cls-3" d="M20.07,88.92c-3.08-1.72-3.77-3.86.64-4,2.15,0,9.38-1.48,17.33-1.7,8.42-.22,17.59.78,19.54.59,3.8-.35,4.53,19.08,1.61,22.61S23.14,90.65,20.07,88.92Z"/><path class="cls-2" d="M100.2,86c0,2.55-6,12.94-6,12.94-5,10.34-11.13,20.47-20.12,24.18a19.84,19.84,0,0,1-11.68,1.45,16.37,16.37,0,0,1-4-1.45c-5.48-2.82-8.2-7.77-12.23-15.51a91.87,91.87,0,0,1-5.26-12.1A118.46,118.46,0,0,1,37.76,84a20.85,20.85,0,0,1-.86-7.54s-.08-6.41,2.82-6.89,12.7,9.56,18.1,12c6,2.7,15.36,2.27,20.77,0s8.11-5.89,15.79-9S102.33,78.92,100.2,86Z"/><ellipse class="cls-4" cx="63.38" cy="95.16" rx="6.74" ry="7.61"/><path class="cls-5" d="M79.61,60.93H76.29a1,1,0,0,1-1.05-1V49.38a1,1,0,0,1,1.05-1.05h3.32a1,1,0,0,1,1,1.05v10.5A1.06,1.06,0,0,1,79.61,60.93Z"/><path class="cls-5" d="M46,56.94V55.11a1,1,0,0,1,1-1H60.87a1.05,1.05,0,0,1,1.06,1v1.83A1.05,1.05,0,0,1,60.87,58H47A1,1,0,0,1,46,56.94Z"/><path class="cls-6" d="M93,128.41c-1.35,3.69-3.57,4.85-4.48,0-.44-2.36-3.32-10.06-5-18.77-1.76-9.25-2.3-19.51-2.84-21.63-1.07-4.12,20.2-8.38,24.6-5.83S94.35,124.71,93,128.41Z"/><ellipse class="cls-7" cx="67.25" cy="30.72" rx="49.22" ry="8.96"/><path class="cls-7" d="M92.56,32.46H45.81c-1.93,0-3.51-1.24-3.51-2.77V10.27c0-1.53,1.58-2.77,3.51-2.77H92.56c1.93,0,3.51,1.24,3.51,2.77V29.69C96.07,31.22,94.49,32.46,92.56,32.46Z"/><path class="cls-8" d="M92.56,32.46H45.81c-1.93,0-3.51-1.24-3.51-2.77V25.62H96.06v4.07C96.07,31.22,94.49,32.46,92.56,32.46Z"/><path class="cls-9" d="M44.78,50.11s5.14,1.23,11.86-2.55,6.24-6.74,6.24-6.74"/><path class="cls-9" d="M85.51,45.12a12.85,12.85,0,0,0-8.81-2.44c-5.58.35-6,2.69-6,2.69"/><path class="cls-10" d="M24.11,98.42H10.23A2.83,2.83,0,0,1,7.4,95.59V73.86A2.83,2.83,0,0,1,10.23,71H24.11a2.82,2.82,0,0,1,2.83,2.83V95.59A2.82,2.82,0,0,1,24.11,98.42Z"/><path class="cls-11" d="M9.81,78.62l.18,14c0,.67,0,1.34,0,2a1.24,1.24,0,0,0,2.48,0q-.09-7-.19-14c0-.67,0-1.34,0-2a1.24,1.24,0,0,0-2.48,0Z"/><path class="cls-11" d="M15.4,78.54q.11,7,.19,14c0,.67,0,1.34,0,2a1.25,1.25,0,0,0,2.49,0q-.11-7-.19-14c0-.67,0-1.33,0-2a1.24,1.24,0,0,0-2.48,0Z"/><path class="cls-11" d="M21.27,78.44q.09,7,.19,14c0,.67,0,1.34,0,2a1.24,1.24,0,0,0,2.48,0l-.18-14c0-.67,0-1.34,0-2a1.24,1.24,0,0,0-2.48,0Z"/><ellipse class="cls-2" cx="8.42" cy="71.82" rx="3.56" ry="3.34"/><circle class="cls-2" cx="13.52" cy="70.41" r="4.75"/><circle class="cls-2" cx="20.16" cy="70.41" r="4.75"/><ellipse class="cls-2" cx="26.18" cy="71.82" rx="3.56" ry="3.34"/></g></g></g></svg>