<svg xmlns="http://www.w3.org/2000/svg" viewBox="0 0 141.73 140.55"><defs><style>.cls-1{fill:#3c3c3b;}.cls-2{fill:#fff;}.cls-3{fill:#36a9e1;}.cls-4{fill:#ededed;}.cls-5{fill:#eeeded;}.cls-6{fill:#010101;}.cls-7{fill:#878787;}</style></defs><g id="Layer_2" data-name="Layer 2"><g id="Layer_1-2" data-name="Layer 1"><ellipse class="cls-1" cx="70.87" cy="70.28" rx="70.87" ry="70.28"/><g id="explore_bot" data-name="explore bot"><circle class="cls-2" cx="70.81" cy="44.3" r="32.93"/><path class="cls-2" d="M102.27,86.93c0,2.58-6,13.08-6,13.08-5.11,10.46-11.25,20.7-20.35,24.45a20,20,0,0,1-11.8,1.47A16.38,16.38,0,0,1,60,124.46c-5.54-2.85-8.29-7.85-12.37-15.68a95.1,95.1,0,0,1-5.32-12.23c-1-2.88-1.73-5.8-3.16-11.66a21,21,0,0,1-.86-7.62s-.09-6.48,2.84-7S54,80,59.42,82.45c6,2.73,15.53,2.29,21,0s8.21-6,16-9.06S104.42,79.74,102.27,86.93Z"/><ellipse class="cls-3" cx="64.85" cy="96.16" rx="6.81" ry="7.69"/><path class="cls-4" d="M56.64,58.15c1.81-1.75,3-1.23,1.44,2.63-.74,1.87-2.69,8.84-5.41,15.79-2.88,7.35-6.53,14.71-7.15,16.48-1.2,3.45-9.61-6.1-10.07-10.44S54.82,59.9,56.64,58.15Z"/><rect class="cls-1" x="53.61" y="38.87" width="36.1" height="23.01" rx="1.98"/><path class="cls-5" d="M85.78,50.72c.58-3.94,2.55-5.53,4.43-.91.92,2.24,5.34,9.29,8.74,17.58,3.63,8.79,6.24,18.85,7.21,20.84C108.06,92.09,87.86,100.64,83,99S85.19,54.65,85.78,50.72Z"/><rect class="cls-1" x="63.94" y="34.53" width="15.45" height="8.66" rx="1.98"/><path class="cls-6" d="M48.79,57.51H45.44a1.06,1.06,0,0,1-1.07-1.06v-14a1.06,1.06,0,0,1,1.07-1.06h3.35a1.05,1.05,0,0,1,1.06,1.06v14A1.06,1.06,0,0,1,48.79,57.51Z"/><circle class="cls-3" cx="71.66" cy="50.37" r="6.82"/><rect class="cls-7" x="56.99" y="41.41" width="5.22" height="2.89"/></g></g></g></svg>