<svg xmlns="http://www.w3.org/2000/svg" viewBox="0 0 141.73 140.55"><defs><style>.cls-1{fill:#3c3c3b;}.cls-2{fill:#fff;}.cls-3{fill:#dadada;}.cls-4,.cls-5{fill:#652682;}.cls-5{stroke:#3d3d3b;stroke-miterlimit:10;stroke-width:3px;}.cls-6{fill:#eeeded;}</style></defs><g id="Layer_2" data-name="Layer 2"><g id="Layer_1-2" data-name="Layer 1"><ellipse class="cls-1" cx="70.87" cy="70.28" rx="70.87" ry="70.28"/><g id="party_bot" data-name="party bot"><circle class="cls-2" cx="70.2" cy="44.29" r="32.8"/><path class="cls-3" d="M19.62,67c-1.94-3-1.56-5.21,2.44-3.23,1.94,1,9.06,3.07,16.24,6.61,7.62,3.75,15.31,8.93,17.14,9.7C59,81.59,50.51,99.25,46.27,101S21.56,70,19.62,67Z"/><path class="cls-2" d="M101.54,86.75c0,2.58-6,13-6,13-5.09,10.42-11.21,20.62-20.27,24.35a19.89,19.89,0,0,1-11.76,1.47,16.18,16.18,0,0,1-4.08-1.47c-5.52-2.83-8.26-7.82-12.32-15.62a92.41,92.41,0,0,1-5.3-12.18c-1-2.86-1.72-5.78-3.15-11.61a20.93,20.93,0,0,1-.86-7.6s-.09-6.45,2.84-6.94,12.79,9.64,18.23,12.1c6,2.72,15.47,2.29,20.92,0s8.17-5.94,15.91-9S103.69,79.59,101.54,86.75Z"/><ellipse class="cls-4" cx="64.26" cy="95.95" rx="6.79" ry="7.66"/><path class="cls-5" d="M81.34,29.9c2.12,0,5.29,10.7,5.29,10.7s11.81-.13,11.81,1.71-8.55,8.33-8.55,8.33,3.81,11.75,2,11.75-10.56-5.54-10.56-5.54-8.82,5.54-10.56,5.54,2-11.75,2-11.75-8.55-6.45-8.55-8.33S76.06,40.6,76.06,40.6,79.23,29.9,81.34,29.9Z"/><path class="cls-5" d="M46.25,29.9c2.11,0,5.29,10.7,5.29,10.7s11.81-.13,11.81,1.71-8.55,8.33-8.55,8.33,3.81,11.75,2,11.75-10.56-5.54-10.56-5.54-8.82,5.54-10.56,5.54,2-11.75,2-11.75-8.54-6.45-8.54-8.33S41,40.6,41,40.6,44.15,29.9,46.25,29.9Z"/><path class="cls-6" d="M94.53,45.47c1.36-3.72,3.6-4.88,4.51,0,.45,2.38,3.35,10.14,5,18.91,1.78,9.31,2.31,19.65,2.86,21.78C108,90.31,86.57,94.61,82.13,92S93.17,49.2,94.53,45.47Z"/></g></g></g></svg>