<svg xmlns="http://www.w3.org/2000/svg" viewBox="0 0 141.73 140.55"><defs><style>.cls-1{fill:#3c3c3b;}.cls-2{fill:#e6007e;}.cls-3{fill:#fff;}.cls-4{fill:#dadada;}.cls-5{fill:#eeeded;}.cls-6{fill:#432918;}.cls-6,.cls-7{stroke:#f6f6f6;}.cls-6,.cls-7,.cls-8{stroke-miterlimit:10;}.cls-7{fill:#f6f6f6;}.cls-8{fill:none;stroke:#e6007e;stroke-width:5px;}.cls-9{fill:#010101;}</style></defs><g id="Layer_2" data-name="Layer 2"><g id="Layer_1-2" data-name="Layer 1"><ellipse class="cls-1" cx="70.87" cy="70.28" rx="70.87" ry="70.28"/><g id="relax_robot" data-name="relax robot"><ellipse class="cls-2" cx="38.62" cy="48.49" rx="8.7" ry="11.66"/><ellipse class="cls-3" cx="70.56" cy="45.18" rx="31.93" ry="32.48"/><path class="cls-4" d="M21.32,94.64c-3.31-1.07-4.4-3-.17-4,2.06-.48,8.72-3.36,16.33-5.18,8.06-1.92,17.08-2.8,18.92-3.38C60,81,64.55,99.82,62.45,103.86S24.62,95.7,21.32,94.64Z"/><path class="cls-3" d="M100.19,86.64c0,2.55-5.88,12.93-5.88,12.93-5,10.34-10.93,20.46-19.77,24.16a19.05,19.05,0,0,1-11.46,1.45,15.22,15.22,0,0,1-4-1.45c-5.39-2.81-8.06-7.76-12-15.49a93.53,93.53,0,0,1-5.16-12.09c-1-2.84-1.69-5.73-3.08-11.52A21.23,21.23,0,0,1,38,77.09s-.08-6.39,2.77-6.88,12.48,9.56,17.78,12c5.88,2.71,15.09,2.27,20.41,0s8-5.88,15.51-8.95S102.29,79.54,100.19,86.64Z"/><ellipse class="cls-2" cx="64.01" cy="95.77" rx="6.62" ry="7.6"/><path class="cls-5" d="M93.11,129c-1.33,3.7-3.51,4.85-4.4,0-.44-2.35-3.27-10.05-4.89-18.76C82.09,101,81.57,90.74,81,88.62c-1-4.11,19.84-8.38,24.17-5.82S94.44,125.3,93.11,129Z"/><path class="cls-6" d="M20.53,90.49c7.34,0,13.31-2.71,13.56-6.1a7.32,7.32,0,0,0,0-.81c-.64-3.21-6.45-5.73-13.52-5.73S7.64,80.37,7,83.58c0,.27,0,.54,0,.81C7.21,87.78,13.18,90.49,20.53,90.49Z"/><path class="cls-7" d="M34.09,84.17c-.25,3.39-6.22,6.1-13.56,6.1S7.21,87.56,7,84.17c0,.16,0,.32,0,.48a13.72,13.72,0,0,0,13.6,13.83A13.71,13.71,0,0,0,34.12,84.65c0-.16,0-.32,0-.48Z"/><ellipse class="cls-2" cx="101.61" cy="49.77" rx="8.7" ry="11.66"/><path class="cls-8" d="M70.62,13.31A32.16,32.16,0,0,1,102.1,40h.39a31.95,31.95,0,0,0-63.74,0h.39A32.16,32.16,0,0,1,70.62,13.31Z"/><path class="cls-3" d="M69.62,16.51C52.16,16.51,38,30.07,38,46.79S52.16,77.06,69.62,77.06Z"/><path class="cls-9" d="M46.93,57.57V55.75a1,1,0,0,1,1-1.06H61.55a1.05,1.05,0,0,1,1,1.06v1.82a1,1,0,0,1-1,1H48A1,1,0,0,1,46.93,57.57Z"/><path class="cls-9" d="M69.62,57.57V55.75a1,1,0,0,1,1-1.06H84.25a1,1,0,0,1,1,1.06v1.82a1,1,0,0,1-1,1H70.66A1,1,0,0,1,69.62,57.57Z"/></g></g></g></svg>