<svg xmlns="http://www.w3.org/2000/svg" viewBox="0 0 141.73 140.55"><defs><style>.cls-1{fill:#3c3c3b;}.cls-2{fill:#dadada;}.cls-3{fill:#fff;}.cls-4{fill:#ffed00;}.cls-5{fill:#010101;}.cls-6{fill:#9e9d9c;}.cls-7{fill:#3d3d3b;}.cls-8{fill:#eeeded;}.cls-9{fill:#70c7da;}</style></defs><g id="Layer_2" data-name="Layer 2"><g id="Layer_1-2" data-name="Layer 1"><ellipse class="cls-1" cx="70.87" cy="70.28" rx="70.87" ry="70.28"/><g id="sport_bot" data-name="sport bot"><path class="cls-2" d="M48.48,124.4c-1.22,3.33-3.22,4.39-4,0-.4-2.13-3-9.09-4.5-17-1.57-8.34-2.06-17.61-2.56-19.53-1-3.72,18.25-7.57,22.23-5.26S49.71,121.06,48.48,124.4Z"/><circle class="cls-3" cx="70.15" cy="44.3" r="32.82"/><path class="cls-3" d="M101.5,86.78c0,2.57-6,13-6,13-5.09,10.43-11.22,20.63-20.28,24.36a19.89,19.89,0,0,1-11.76,1.47,16.18,16.18,0,0,1-4.08-1.47c-5.52-2.83-8.26-7.82-12.33-15.62a95.85,95.85,0,0,1-5.3-12.19c-1-2.86-1.72-5.78-3.15-11.62a21.12,21.12,0,0,1-.86-7.6s-.09-6.45,2.84-6.94,12.8,9.64,18.24,12.11c6,2.72,15.48,2.28,20.93,0s8.17-5.94,15.91-9S103.65,79.6,101.5,86.78Z"/><ellipse class="cls-4" cx="64.21" cy="95.97" rx="6.79" ry="7.66"/><path class="cls-5" d="M79.71,62.46H76.38a1.06,1.06,0,0,1-1.07-1.06V52.61a1.06,1.06,0,0,1,1.07-1.06h3.33a1.06,1.06,0,0,1,1.07,1.06V61.4A1.08,1.08,0,0,1,79.71,62.46Z"/><path class="cls-5" d="M56.37,62.46H53A1.06,1.06,0,0,1,52,61.4V52.61A1.06,1.06,0,0,1,53,51.55h3.33a1.06,1.06,0,0,1,1.07,1.06V61.4A1.08,1.08,0,0,1,56.37,62.46Z"/><path class="cls-4" d="M41.81,30.9H98.5c4,0,4-6.25,0-6.25H41.81c-4,0-4,6.25,0,6.25Z"/><circle class="cls-6" cx="123.47" cy="43.1" r="2.86"/><circle class="cls-6" cx="78.21" cy="43.1" r="2.86"/><path class="cls-7" d="M81.78,51.56h1.47A3.56,3.56,0,0,0,86.81,48V38.21a3.56,3.56,0,0,0-3.56-3.56H81.78a3.56,3.56,0,0,0-3.57,3.56V48A3.56,3.56,0,0,0,81.78,51.56Z"/><path class="cls-7" d="M90.87,54.85h-3.2a3.56,3.56,0,0,1-3.57-3.56V34.91a3.56,3.56,0,0,1,3.57-3.56h3.2a3.56,3.56,0,0,1,3.56,3.56V51.3A3.57,3.57,0,0,1,90.87,54.85Z"/><path class="cls-7" d="M118.43,51.56h1.48A3.56,3.56,0,0,0,123.47,48V38.21a3.56,3.56,0,0,0-3.56-3.56h-1.48a3.56,3.56,0,0,0-3.56,3.56V48A3.56,3.56,0,0,0,118.43,51.56Z"/><rect class="cls-6" x="94.42" y="40.24" width="19.24" height="5.74"/><path class="cls-7" d="M114.39,54.85h-3.2a3.56,3.56,0,0,1-3.56-3.56V34.91a3.56,3.56,0,0,1,3.56-3.56h3.2A3.56,3.56,0,0,1,118,34.91V51.3A3.57,3.57,0,0,1,114.39,54.85Z"/><path class="cls-8" d="M99.22,41.34c1.53-3.65,3.83-4.72,4.51.22.32,2.39,2.85,10.29,4.09,19.14,1.31,9.39,1.35,19.74,1.8,21.9.87,4.2-20.74,7.45-25.06,4.65S97.67,45,99.22,41.34Z"/><path class="cls-9" d="M43.93,34.1s-1.84,5.42-1.84,6,1.24,1.41,1.84,1.41a2.43,2.43,0,0,0,1.84-1.43A54.54,54.54,0,0,0,43.93,34.1Z"/><path class="cls-9" d="M50.69,39s-1.84,5.43-1.84,6,1.24,1.41,1.84,1.41A2.42,2.42,0,0,0,52.53,45,54.09,54.09,0,0,0,50.69,39Z"/><path class="cls-9" d="M57.39,34.22s-1.83,5.43-1.83,6,1.23,1.41,1.83,1.41,1.77-.82,1.84-1.42S57.39,34.22,57.39,34.22Z"/></g></g></g></svg>