<svg xmlns="http://www.w3.org/2000/svg" viewBox="0 0 141.73 140.55"><defs><style>.cls-1{fill:#3c3c3b;}.cls-2{fill:#fff;}.cls-3{fill:#dadada;}.cls-4{fill:#1d1d1b;}.cls-5{fill:#010101;}.cls-6{fill:#eeeded;}</style></defs><g id="Layer_2" data-name="Layer 2"><g id="Layer_1-2" data-name="Layer 1"><ellipse class="cls-1" cx="70.87" cy="70.28" rx="70.87" ry="70.28"/><g id="standart_bot" data-name="standart bot"><circle class="cls-2" cx="70.14" cy="44.44" r="32.96"/><path class="cls-3" d="M48.68,125.05c-1.23,3.36-3.24,4.41-4.07,0-.4-2.13-3-9.12-4.52-17C38.5,99.64,38,90.33,37.51,88.41c-1-3.75,18.33-7.61,22.32-5.29S49.91,121.7,48.68,125.05Z"/><path class="cls-2" d="M101.63,87.1c0,2.59-6.06,13.09-6.06,13.09-5.11,10.48-11.26,20.72-20.36,24.47a20,20,0,0,1-11.81,1.47,16.06,16.06,0,0,1-4.1-1.47C53.75,121.81,51,116.8,46.92,109A95.19,95.19,0,0,1,41.6,96.73c-1-2.88-1.73-5.8-3.16-11.66a20.93,20.93,0,0,1-.87-7.64s-.09-6.48,2.85-7,12.86,9.68,18.32,12.16c6.05,2.73,15.54,2.3,21,0s8.22-6,16-9.07S103.78,79.89,101.63,87.1Z"/><ellipse class="cls-4" cx="64.17" cy="96.33" rx="6.82" ry="7.7"/><path class="cls-5" d="M80.6,61.69H77.24a1.06,1.06,0,0,1-1.06-1.07v-14a1.06,1.06,0,0,1,1.06-1.07H80.6a1.06,1.06,0,0,1,1.06,1.07v14A1.08,1.08,0,0,1,80.6,61.69Z"/><path class="cls-5" d="M56.3,61.69H53a1.07,1.07,0,0,1-1.07-1.07v-14A1.07,1.07,0,0,1,53,45.57H56.3a1.07,1.07,0,0,1,1.07,1.07v14A1.08,1.08,0,0,1,56.3,61.69Z"/><path class="cls-6" d="M94.14,130c-1.37,3.75-3.61,4.91-4.53,0-.45-2.38-3.36-10.18-5-19-1.79-9.35-2.33-19.74-2.88-21.88-1.08-4.17,20.44-8.49,24.9-5.9S95.51,126.23,94.14,130Z"/></g></g></g></svg>