<svg xmlns="http://www.w3.org/2000/svg" viewBox="0 0 141.73 140.55"><defs><style>.cls-1{fill:#3c3c3b;}.cls-2{fill:#fff;}.cls-3{fill:#dadada;}.cls-4{fill:#008d36;}.cls-5{fill:#9ec3e8;stroke:#1d1d1b;}.cls-5,.cls-6{stroke-miterlimit:10;stroke-width:3px;}.cls-6{fill:none;stroke:#008d36;}.cls-7{fill:#eeeded;}.cls-8{fill:#1d1d1b;}</style></defs><g id="Layer_2" data-name="Layer 2"><g id="Layer_1-2" data-name="Layer 1"><ellipse class="cls-1" cx="70.87" cy="70.28" rx="70.87" ry="70.28"/><g id="study_bot" data-name="study bot"><circle class="cls-2" cx="70.47" cy="44.35" r="32.98"/><path class="cls-3" d="M19.63,67.23c-1.95-3-1.57-5.24,2.45-3.26,1.94,1,9.11,3.1,16.33,6.65,7.65,3.77,15.39,9,17.22,9.75,3.57,1.48-5,19.23-9.22,21S21.57,70.23,19.63,67.23Z"/><path class="cls-2" d="M102,87c0,2.59-6.06,13.1-6.06,13.1-5.11,10.48-11.27,20.73-20.38,24.49a20,20,0,0,1-11.82,1.47,16.38,16.38,0,0,1-4.09-1.47c-5.56-2.85-8.31-7.87-12.39-15.71a93.38,93.38,0,0,1-5.33-12.24c-1-2.88-1.73-5.81-3.16-11.67a21,21,0,0,1-.87-7.64s-.09-6.49,2.85-7S53.6,80.08,59.06,82.56c6.06,2.73,15.56,2.29,21,0s8.22-6,16-9.08S104.14,79.84,102,87Z"/><ellipse class="cls-4" cx="64.5" cy="96.29" rx="6.82" ry="7.7"/><rect class="cls-5" x="9.86" y="52.9" width="21.05" height="31.64" rx="2.84"/><rect class="cls-6" x="37.49" y="44.35" width="23.2" height="14.38" rx="1.7"/><rect class="cls-6" x="69" y="44.35" width="23.2" height="14.38" rx="1.7"/><path class="cls-7" d="M92.62,49.08c1-3.86,3.08-5.26,4.51-.47.7,2.33,4.41,9.78,7,18.38,2.75,9.12,4.37,19.4,5.14,21.48,1.51,4-19.45,10.57-24.16,8.47S91.65,53,92.62,49.08Z"/><line class="cls-6" x1="60.69" y1="52.83" x2="69" y2="52.83"/><rect class="cls-8" x="9.86" y="79.57" width="21.05" height="4.11"/></g></g></g></svg>