<svg xmlns="http://www.w3.org/2000/svg" viewBox="0 0 141.73 140.55"><defs><style>.cls-1{fill:#3c3c3b;}.cls-2{fill:#dadada;}.cls-3{fill:#585857;}.cls-4{fill:none;stroke:#585857;stroke-miterlimit:10;stroke-width:5px;}.cls-5{fill:#fff;}.cls-6{fill:#e20e18;}.cls-7{fill:#010101;}.cls-8{fill:#eeeded;}</style></defs><g id="Layer_2" data-name="Layer 2"><g id="Layer_1-2" data-name="Layer 1"><ellipse class="cls-1" cx="70.87" cy="70.28" rx="70.87" ry="70.28"/><g id="travel_bot" data-name="travel bot"><path class="cls-2" d="M48.88,124.28c-1.22,3.32-3.2,4.36-4,0-.39-2.12-3-9-4.47-16.87C38.8,99.13,38.32,89.91,37.82,88c-1-3.7,18.14-7.53,22.1-5.23S50.1,121,48.88,124.28Z"/><path class="cls-3" d="M130.22,89.45H92.67c-3,0-5.48-3.31-5.48-7.37V70.71c0-4.08,2.46-7.37,5.48-7.37h37.55c3,0,5.47,3.3,5.47,7.37V82.08C135.7,86.15,133.25,89.45,130.22,89.45Z"/><ellipse class="cls-4" cx="111.45" cy="69.82" rx="12.07" ry="16.24"/><circle class="cls-5" cx="70.11" cy="44.49" r="32.62"/><path class="cls-5" d="M101.28,86.71c0,2.56-6,13-6,13C90.24,110,84.15,120.18,75.14,123.89a19.86,19.86,0,0,1-11.69,1.46,16.15,16.15,0,0,1-4.06-1.46c-5.49-2.82-8.21-7.78-12.25-15.53a93.56,93.56,0,0,1-5.27-12.12c-1-2.84-1.71-5.74-3.13-11.54a20.93,20.93,0,0,1-.86-7.56s-.08-6.41,2.82-6.89,12.73,9.58,18.13,12c6,2.7,15.39,2.27,20.81,0s8.12-5.91,15.82-9S103.42,79.59,101.28,86.71Z"/><ellipse class="cls-6" cx="64.2" cy="95.86" rx="6.75" ry="7.62"/><path class="cls-7" d="M80.46,61.56H77.14a1.06,1.06,0,0,1-1.06-1.06V46.66a1.07,1.07,0,0,1,1.06-1.06h3.32a1.06,1.06,0,0,1,1.05,1.06V60.52A1,1,0,0,1,80.46,61.56Z"/><path class="cls-7" d="M56.41,61.56H53.09A1.05,1.05,0,0,1,52,60.5V46.66a1.06,1.06,0,0,1,1.05-1.06h3.32a1.06,1.06,0,0,1,1.06,1.06V60.52A1,1,0,0,1,56.41,61.56Z"/><path class="cls-8" d="M108.73,52.13c2.71-2.86,5.21-3.05,4.13,1.78-.53,2.34-.93,10.57-2.86,19.24-2,9.2-5.61,18.85-6,21-.65,4.21-21.9-.28-24.94-4.38S106,55,108.73,52.13Z"/><path class="cls-6" d="M70.11,6.41c-18,0-32.62,12.84-32.62,28.66h65.24C102.73,19.25,88.12,6.41,70.11,6.41Z"/><path class="cls-3" d="M91.39,43H32.13a1.77,1.77,0,0,1-1-3.19l6.41-4.68h65.24l-10.3,7.53A1.88,1.88,0,0,1,91.39,43Z"/></g></g></g></svg>