<svg xmlns="http://www.w3.org/2000/svg" viewBox="0 0 141.73 140.55"><defs><style>.cls-1{fill:#3c3c3b;}.cls-2,.cls-8{fill:#312783;}.cls-3{fill:#fff;}.cls-4{fill:#dadada;}.cls-5{fill:#575756;}.cls-6{fill:#010101;}.cls-7{fill:#eeeded;}.cls-8{stroke:#312783;stroke-miterlimit:10;}.cls-9{fill:#70c7da;}</style></defs><g id="Layer_2" data-name="Layer 2"><g id="Layer_1-2" data-name="Layer 1"><ellipse class="cls-1" cx="70.87" cy="70.28" rx="70.87" ry="70.28"/><g id="work_bot" data-name="work bot"><circle class="cls-2" cx="102.03" cy="38.58" r="4.22"/><circle class="cls-3" cx="70.18" cy="44.44" r="32.96"/><path class="cls-4" d="M48.72,125.05c-1.23,3.36-3.23,4.41-4.06,0-.41-2.13-3-9.12-4.52-17-1.6-8.38-2.09-17.69-2.59-19.61-1-3.75,18.33-7.61,22.32-5.29S50,121.7,48.72,125.05Z"/><rect class="cls-5" x="42.02" y="105.98" width="7.43" height="22.34" transform="translate(-77.84 140.48) rotate(-79.37)"/><path class="cls-3" d="M101.67,87.1c0,2.59-6,13.09-6,13.09-5.11,10.48-11.26,20.72-20.37,24.47a20,20,0,0,1-11.81,1.47,15.86,15.86,0,0,1-4.09-1.47C53.8,121.81,51.05,116.8,47,109a94,94,0,0,1-5.33-12.24c-1-2.88-1.73-5.8-3.16-11.66a21.15,21.15,0,0,1-.87-7.64s-.08-6.48,2.85-7,12.86,9.68,18.32,12.16c6,2.73,15.54,2.3,21,0s8.21-6,16-9.07S103.83,79.89,101.67,87.1Z"/><ellipse class="cls-2" cx="64.22" cy="96.33" rx="6.82" ry="7.7"/><path class="cls-6" d="M80.64,61.69H77.29a1.07,1.07,0,0,1-1.07-1.07v-14a1.07,1.07,0,0,1,1.07-1.07h3.35a1.07,1.07,0,0,1,1.07,1.07v14A1.09,1.09,0,0,1,80.64,61.69Z"/><path class="cls-6" d="M56.35,61.69H53a1.06,1.06,0,0,1-1.06-1.07v-14A1.06,1.06,0,0,1,53,45.57h3.36a1.06,1.06,0,0,1,1.06,1.07v14A1.07,1.07,0,0,1,56.35,61.69Z"/><path class="cls-7" d="M94.19,130c-1.37,3.75-3.62,4.91-4.54,0-.45-2.38-3.36-10.18-5-19-1.78-9.35-2.32-19.74-2.88-21.88-1.08-4.17,20.44-8.49,24.9-5.9S95.55,126.23,94.19,130Z"/><path class="cls-8" d="M102.79,38.26a33,33,0,0,0-65.22,0Z"/><path class="cls-2" d="M104.09,38.26s-.19-4.4,3.06-6,7.42-1.33,8.54,0S104.09,38.26,104.09,38.26Z"/><path class="cls-2" d="M103,39.62s3.22-3.92,7.26-2.81,7.38,4.59,7.32,6.58S103,39.62,103,39.62Z"/><path class="cls-5" d="M24.76,109.42l7.63,1.44L31,118.16l-7.63-1.43a7.78,7.78,0,1,0,1.37-7.31Z"/><path class="cls-9" d="M89.47,42.8s-1.85,5.45-1.85,6,1.25,1.42,1.85,1.42,1.77-.83,1.84-1.43S89.47,42.8,89.47,42.8Z"/><path class="cls-9" d="M97.41,42.8s-1.85,5.45-1.85,6,1.25,1.42,1.85,1.42,1.77-.83,1.84-1.43S97.41,42.8,97.41,42.8Z"/><path class="cls-9" d="M93.16,49.57s-1.84,5.45-1.84,6S92.56,57,93.16,57A2.45,2.45,0,0,0,95,55.57C95.1,55,93.16,49.57,93.16,49.57Z"/></g></g></g></svg>