<svg width="10" height="10" viewBox="0 0 10 10" fill="none" xmlns="http://www.w3.org/2000/svg">
<path d="M5.3125 2.34375C5.3125 2.21943 5.26311 2.1002 5.17521 2.01229C5.0873 1.92439 4.96807 1.875 4.84375 1.875C4.71943 1.875 4.6002 1.92439 4.51229 2.01229C4.42439 2.1002 4.375 2.21943 4.375 2.34375V5C4.375 5.1775 4.475 5.34 4.63437 5.41875L6.19687 6.2C6.25221 6.23118 6.31329 6.25078 6.37643 6.25763C6.43957 6.26448 6.50344 6.25843 6.56417 6.23984C6.6249 6.22125 6.68121 6.19052 6.7297 6.1495C6.77819 6.10849 6.81784 6.05805 6.84624 6.00125C6.87464 5.94444 6.89121 5.88246 6.89492 5.81906C6.89864 5.75566 6.88944 5.69217 6.86787 5.63243C6.84631 5.5727 6.81283 5.51797 6.76946 5.47157C6.7261 5.42516 6.67376 5.38806 6.61562 5.3625L5.3125 4.70937V2.34375Z" fill="#333333"/>
<path fill-rule="evenodd" clip-rule="evenodd" d="M5 0C3.67392 0 2.40215 0.526784 1.46447 1.46447C0.526784 2.40215 0 3.67392 0 5C0 6.32608 0.526784 7.59785 1.46447 8.53553C2.40215 9.47322 3.67392 10 5 10C6.32608 10 7.59785 9.47322 8.53553 8.53553C9.47322 7.59785 10 6.32608 10 5C10 3.67392 9.47322 2.40215 8.53553 1.46447C7.59785 0.526784 6.32608 0 5 0V0ZM0.9375 5C0.9375 3.92256 1.36551 2.88925 2.12738 2.12738C2.88925 1.36551 3.92256 0.9375 5 0.9375C6.07744 0.9375 7.11075 1.36551 7.87262 2.12738C8.63449 2.88925 9.0625 3.92256 9.0625 5C9.0625 6.07744 8.63449 7.11075 7.87262 7.87262C7.11075 8.63449 6.07744 9.0625 5 9.0625C3.92256 9.0625 2.88925 8.63449 2.12738 7.87262C1.36551 7.11075 0.9375 6.07744 0.9375 5Z" fill="#333333"/>
</svg>
