<svg width="26" height="26" viewBox="0 0 26 26" fill="none" xmlns="http://www.w3.org/2000/svg">
<path d="M12.7738 25.5476C19.8286 25.5476 25.5476 19.8286 25.5476 12.7738C25.5476 5.71903 19.8286 0 12.7738 0C5.71902 0 0 5.71903 0 12.7738C0 19.8286 5.71902 25.5476 12.7738 25.5476Z" fill="#3C3C3B"/>
<path d="M12.635 14.0261C15.8772 14.0261 18.5055 11.3757 18.5055 8.10631C18.5055 4.8369 15.8772 2.18652 12.635 2.18652C9.39278 2.18652 6.76447 4.8369 6.76447 8.10631C6.76447 11.3757 9.39278 14.0261 12.635 14.0261Z" fill="white"/>
<path d="M3.61747 16.1619C3.06232 15.8493 2.93795 15.4603 3.73282 15.4349C4.12035 15.4349 5.4235 15.1659 6.85643 15.1259C8.37407 15.0859 10.0269 15.2677 10.3784 15.2331C11.0633 15.1695 11.1949 18.701 10.6686 19.3426C10.1423 19.9842 4.17081 16.4763 3.61747 16.1619Z" fill="#DADADA"/>
<path d="M18.0603 15.6309C18.0603 16.0944 16.9789 17.9828 16.9789 17.9828C16.0777 19.8622 14.9728 21.7033 13.3524 22.3777C12.6932 22.6782 11.9592 22.7701 11.2472 22.6412C10.9965 22.5854 10.7541 22.4968 10.5262 22.3777C9.53845 21.8651 9.04819 20.9654 8.32181 19.5586C7.95393 18.8494 7.63708 18.1144 7.37374 17.3594C7.14975 16.6721 6.96025 15.9739 6.80597 15.2674C6.6716 14.824 6.61906 14.3595 6.65096 13.8969C6.65096 13.8969 6.63654 12.7319 7.15925 12.6446C7.68195 12.5574 9.44833 14.3822 10.4216 14.8257C11.5031 15.3164 13.1902 15.2383 14.1653 14.8257C15.1404 14.4131 15.627 13.7552 17.0113 13.1899C18.3956 12.6246 18.4442 14.344 18.0603 15.6309Z" fill="white"/>
<path d="M11.4238 18.6794C12.0948 18.6794 12.6387 18.0601 12.6387 17.2962C12.6387 16.5323 12.0948 15.9131 11.4238 15.9131C10.7529 15.9131 10.209 16.5323 10.209 17.2962C10.209 18.0601 10.7529 18.6794 11.4238 18.6794Z" fill="#B1804A"/>
<path d="M14.3491 11.0745H13.7507C13.7263 11.0758 13.7019 11.072 13.679 11.0634C13.656 11.0548 13.6351 11.0416 13.6174 11.0246C13.5997 11.0076 13.5856 10.9872 13.576 10.9645C13.5664 10.9418 13.5614 10.9174 13.5615 10.8928V8.97526C13.5602 8.94986 13.5642 8.92446 13.5732 8.90071C13.5823 8.87697 13.5962 8.8554 13.614 8.83741C13.6318 8.81943 13.6532 8.80541 13.6768 8.79629C13.7003 8.78716 13.7255 8.78311 13.7507 8.78442H14.3491C14.3736 8.78439 14.3978 8.78937 14.4202 8.79907C14.4427 8.80877 14.463 8.82297 14.4799 8.84083C14.4967 8.85868 14.5098 8.8798 14.5183 8.90291C14.5268 8.92603 14.5306 8.95064 14.5294 8.97526V10.8837C14.529 10.9326 14.5101 10.9796 14.4767 11.0151C14.4432 11.0505 14.3976 11.0718 14.3491 11.0745Z" fill="#010101"/>
<path d="M8.29116 10.3493V10.0167C8.29116 9.96852 8.31015 9.92229 8.34395 9.88821C8.37775 9.85412 8.4236 9.83497 8.4714 9.83497H10.9714C11.0203 9.83445 11.0676 9.85309 11.1033 9.88699C11.1389 9.92088 11.1601 9.96739 11.1624 10.0167V10.3493C11.1627 10.3747 11.1579 10.3999 11.1484 10.4234C11.1389 10.4468 11.1248 10.4682 11.107 10.4861C11.0892 10.5041 11.0681 10.5182 11.0448 10.5278C11.0215 10.5374 10.9965 10.5422 10.9714 10.542H8.4714C8.44679 10.542 8.42244 10.537 8.39983 10.5272C8.37723 10.5174 8.35685 10.503 8.33997 10.485C8.32308 10.4669 8.31004 10.4456 8.30164 10.4222C8.29325 10.3989 8.28968 10.3741 8.29116 10.3493Z" fill="#010101"/>
<path d="M16.7625 23.3394C16.5192 24.0101 16.1191 24.2209 15.955 23.3394C15.8757 22.9104 15.3566 21.5109 15.0538 19.9278C14.7366 18.2466 14.6393 16.3818 14.5419 15.9964C14.3491 15.2476 18.1828 14.4733 18.9759 14.9368C19.769 15.4003 17.0059 22.6669 16.7625 23.3394Z" fill="#EEEDED"/>
<path d="M12.1214 7.21214C17.021 7.21214 20.9929 6.48302 20.9929 5.58361C20.9929 4.6842 17.021 3.95508 12.1214 3.95508C7.22174 3.95508 3.24982 4.6842 3.24982 5.58361C3.24982 6.48302 7.22174 7.21214 12.1214 7.21214Z" fill="#CA9E67"/>
<path d="M16.6833 5.89991H8.25692C7.90905 5.89991 7.62427 5.67453 7.62427 5.39644V1.86675C7.62427 1.58866 7.90905 1.36328 8.25692 1.36328H16.6833C17.0311 1.36328 17.3159 1.58866 17.3159 1.86675V5.39644C17.3159 5.67453 17.0311 5.89991 16.6833 5.89991Z" fill="#CA9E67"/>
<path d="M16.6833 5.89946H8.25692C7.90905 5.89946 7.62427 5.67408 7.62427 5.396V4.65625H17.3141V5.396C17.3159 5.67408 17.0311 5.89946 16.6833 5.89946Z" fill="#442A19"/>
<path d="M8.07123 9.10746C8.07123 9.10746 8.99768 9.33102 10.2089 8.64398C11.4201 7.95694 11.3336 7.41895 11.3336 7.41895" stroke="#010101" stroke-miterlimit="10"/>
<path d="M15.4125 8.20076C14.955 7.86165 14.3899 7.70382 13.8246 7.75727C12.8188 7.82089 12.7431 8.2462 12.7431 8.2462" stroke="#010101" stroke-miterlimit="10"/>
<path d="M4.34562 17.888H1.84386C1.70857 17.888 1.57883 17.8339 1.48317 17.7374C1.38751 17.6409 1.33377 17.5101 1.33377 17.3737V13.4241C1.33305 13.3561 1.34572 13.2886 1.37103 13.2256C1.39635 13.1626 1.43381 13.1052 1.48124 13.0569C1.52868 13.0085 1.58516 12.9702 1.6474 12.944C1.70964 12.9178 1.77641 12.9043 1.84386 12.9043H4.34562C4.41268 12.9041 4.47911 12.9172 4.54111 12.943C4.6031 12.9687 4.65943 13.0066 4.70684 13.0544C4.75425 13.1022 4.79182 13.159 4.81737 13.2215C4.84292 13.2841 4.85595 13.3511 4.85571 13.4187V17.3737C4.85595 17.4413 4.84292 17.5083 4.81737 17.5708C4.79182 17.6333 4.75425 17.6901 4.70684 17.7379C4.65943 17.7857 4.6031 17.8236 4.54111 17.8494C4.47911 17.8751 4.41268 17.8883 4.34562 17.888Z" fill="#FFDE0D"/>
<path d="M1.76822 14.2898L1.80066 16.8344C1.80066 16.9562 1.80066 17.078 1.80066 17.1979C1.80066 17.2577 1.82421 17.315 1.86613 17.3573C1.90804 17.3996 1.96489 17.4233 2.02417 17.4233C2.08344 17.4233 2.14029 17.3996 2.1822 17.3573C2.22412 17.315 2.24767 17.2577 2.24767 17.1979C2.23685 16.3497 2.22544 15.5015 2.21342 14.6533C2.21342 14.5316 2.21342 14.4098 2.21342 14.2898C2.21342 14.2301 2.18987 14.1727 2.14796 14.1305C2.10604 14.0882 2.0492 14.0645 1.98992 14.0645C1.93064 14.0645 1.87379 14.0882 1.83188 14.1305C1.78997 14.1727 1.76642 14.2301 1.76642 14.2898H1.76822Z" fill="#FAB334"/>
<path d="M2.77576 14.2752C2.78897 15.1234 2.80039 15.9716 2.81 16.8198C2.81 16.9415 2.81 17.0633 2.81 17.1833C2.81503 17.2398 2.84085 17.2924 2.88238 17.3307C2.9239 17.3689 2.97814 17.3902 3.0344 17.3902C3.09067 17.3902 3.14491 17.3689 3.18643 17.3307C3.22796 17.2924 3.25378 17.2398 3.25881 17.1833C3.24559 16.3351 3.23417 15.4869 3.22456 14.6387C3.22456 14.5169 3.22456 14.397 3.22456 14.2752C3.22456 14.2154 3.20101 14.1581 3.1591 14.1158C3.11718 14.0735 3.06034 14.0498 3.00106 14.0498C2.94178 14.0498 2.88494 14.0735 2.84302 14.1158C2.80111 14.1581 2.77756 14.2154 2.77756 14.2752H2.77576Z" fill="#FAB334"/>
<path d="M3.83374 14.2566C3.84455 15.1048 3.85597 15.953 3.86799 16.8012C3.86799 16.923 3.86799 17.0448 3.86799 17.1647C3.86799 17.2245 3.89153 17.2818 3.93345 17.3241C3.97536 17.3664 4.03221 17.3901 4.09149 17.3901C4.15076 17.3901 4.20761 17.3664 4.24953 17.3241C4.29144 17.2818 4.31499 17.2245 4.31499 17.1647L4.28254 14.6201C4.28254 14.4984 4.28254 14.3766 4.28254 14.2566C4.28254 14.1969 4.259 14.1395 4.21708 14.0973C4.17517 14.055 4.11832 14.0312 4.05904 14.0312C3.99977 14.0312 3.94292 14.055 3.901 14.0973C3.85909 14.1395 3.83554 14.1969 3.83554 14.2566H3.83374Z" fill="#FAB334"/>
<path d="M1.51764 13.6604C1.87202 13.6604 2.1593 13.3886 2.1593 13.0534C2.1593 12.7181 1.87202 12.4463 1.51764 12.4463C1.16326 12.4463 0.875977 12.7181 0.875977 13.0534C0.875977 13.3886 1.16326 13.6604 1.51764 13.6604Z" fill="white"/>
<path d="M2.4369 13.6613C2.90974 13.6613 3.29305 13.2747 3.29305 12.7979C3.29305 12.3211 2.90974 11.9346 2.4369 11.9346C1.96406 11.9346 1.58075 12.3211 1.58075 12.7979C1.58075 13.2747 1.96406 13.6613 2.4369 13.6613Z" fill="white"/>
<path d="M3.63368 13.6613C4.10652 13.6613 4.48983 13.2747 4.48983 12.7979C4.48983 12.3211 4.10652 11.9346 3.63368 11.9346C3.16084 11.9346 2.77753 12.3211 2.77753 12.7979C2.77753 13.2747 3.16084 13.6613 3.63368 13.6613Z" fill="white"/>
<path d="M4.71875 13.6604C5.07313 13.6604 5.36041 13.3886 5.36041 13.0534C5.36041 12.7181 5.07313 12.4463 4.71875 12.4463C4.36437 12.4463 4.07709 12.7181 4.07709 13.0534C4.07709 13.3886 4.36437 13.6604 4.71875 13.6604Z" fill="white"/>
</svg>
