<svg width="23" height="24" viewBox="0 0 23 24" fill="none" xmlns="http://www.w3.org/2000/svg">
<path d="M1.00033 23.2689H6.35289C6.37952 23.2689 6.40566 23.2674 6.4318 23.2649C6.45103 23.2629 6.47026 23.2594 6.48949 23.2564C6.4959 23.2554 6.50232 23.2549 6.50873 23.2534C6.53141 23.2489 6.5536 23.2429 6.57579 23.2364C6.57826 23.2359 6.58073 23.2354 6.58319 23.2344C6.60538 23.2274 6.62757 23.2195 6.64878 23.2105C6.65075 23.2095 6.65322 23.209 6.65568 23.208C6.67639 23.1995 6.69612 23.1895 6.71535 23.1795C6.7188 23.178 6.72226 23.1765 6.72521 23.1745C6.74346 23.1645 6.76072 23.154 6.77798 23.1425C6.78242 23.1395 6.78735 23.137 6.79179 23.134C6.80806 23.123 6.82384 23.1105 6.83913 23.0985C6.84406 23.0946 6.84899 23.0916 6.85343 23.0876C6.87365 23.0711 6.89288 23.0531 6.91113 23.0346L19.0908 10.6951C19.0917 10.6941 19.0927 10.6931 19.0942 10.6921C19.0968 10.6903 19.0983 10.6875 19.1004 10.6853L22.0028 7.74482C22.2893 7.45454 22.4471 7.06883 22.4471 6.65815C22.4471 6.24796 22.2893 5.86176 22.0028 5.57198L17.8752 1.39069C17.2839 0.791646 16.3218 0.791646 15.7305 1.39069L12.8229 4.33643C12.8224 4.33693 12.8219 4.33693 12.8219 4.33743C12.8219 4.33841 12.8206 4.33882 12.8199 4.33952L0.442583 16.8788C0.424337 16.8973 0.407077 16.9168 0.390803 16.9368C0.386365 16.9418 0.382913 16.9478 0.378968 16.9528C0.367132 16.9682 0.355297 16.9832 0.344941 16.9997C0.341489 17.0047 0.339023 17.0097 0.336064 17.0147C0.325215 17.0317 0.314859 17.0492 0.304996 17.0672C0.303024 17.0707 0.301544 17.0747 0.300065 17.0782C0.290202 17.0976 0.280339 17.1176 0.271956 17.1381C0.27097 17.1406 0.269983 17.1431 0.268997 17.1456C0.260614 17.1671 0.25223 17.1891 0.245819 17.2116C0.244833 17.2141 0.24434 17.2171 0.243847 17.2196C0.237436 17.2415 0.231518 17.264 0.22708 17.287C0.2256 17.2935 0.225107 17.3005 0.224121 17.307C0.220669 17.326 0.21771 17.345 0.215738 17.3644C0.213272 17.3909 0.211793 17.4174 0.211793 17.4444V22.4695C0.211299 22.9112 0.564389 23.2689 1.00033 23.2689ZM4.55062 21.6701C3.02561 21.6701 1.78935 20.4339 1.78935 18.9089C1.78935 18.1828 2.07537 17.4859 2.58546 16.9691L11.3332 8.10692C12.4591 6.96627 14.3002 6.96628 15.4261 8.10696C16.5315 9.22682 16.5315 11.0271 15.4261 12.147L6.9033 20.7813C6.34193 21.35 5.57613 21.6701 4.77702 21.6701H4.55062ZM15.634 3.74947C16.2769 3.09822 17.3282 3.09824 17.9711 3.74953L19.7041 5.50507C20.3354 6.14458 20.3355 7.17274 19.7042 7.81229C19.0612 8.46372 18.0097 8.46372 17.3668 7.81229L15.6339 6.05664C15.0026 5.4171 15.0027 4.38894 15.634 3.74947Z" fill="black"/>
</svg>
