<svg width="21" height="27" viewBox="0 0 21 27" fill="none" xmlns="http://www.w3.org/2000/svg">
<path d="M2.7217 16.1241L2.72188 16.1243L9.72596 25.737L9.80678 25.6781L9.72596 25.737C9.90623 25.9843 10.1938 26.1306 10.5 26.1306C10.806 26.1306 11.0937 25.9845 11.274 25.7371L18.2817 16.1225L18.2819 16.1222C19.4713 14.4787 20.1 12.5342 20.1 10.4999C20.1 5.20636 15.7935 0.9 10.5 0.9C5.20649 0.9 0.9 5.20636 0.9 10.4999C0.9 12.5324 1.5294 14.4768 2.7217 16.1241ZM2.69357 10.4999C2.69357 6.19565 6.19564 2.6937 10.5 2.6937C14.8044 2.6937 18.3064 6.19565 18.3064 10.5C18.3064 12.1548 17.7955 13.7349 16.8306 15.0685C16.8305 15.0686 16.8305 15.0686 16.8305 15.0687L10.5001 23.7538L4.17341 15.0703C3.2052 13.7327 2.69357 12.1525 2.69357 10.4999ZM6.09649 10.4999C6.09649 12.9283 8.07187 14.9035 10.5 14.9035C12.9283 14.9035 14.9038 12.9283 14.9038 10.4999C14.9038 8.07174 12.9282 6.09649 10.5 6.09649C8.07187 6.09649 6.09649 8.07187 6.09649 10.4999ZM7.89019 10.4999C7.89019 9.06091 9.06102 7.89019 10.5 7.89019C11.9391 7.89019 13.1101 9.06092 13.1101 10.4999C13.1101 11.939 11.9391 13.1099 10.5 13.1099C9.06103 13.1099 7.89019 11.939 7.89019 10.4999Z" fill="#333333" stroke="black" stroke-width="0.2"/>
</svg>
