<svg width="15" height="15" viewBox="0 0 15 15" fill="none" xmlns="http://www.w3.org/2000/svg">
<path fill-rule="evenodd" clip-rule="evenodd" d="M5.76 10.112L1.99118 14.1363C1.65019 14.5004 1.07861 14.5191 0.714504 14.1782C0.350408 13.8372 0.331666 13.2656 0.672646 12.9015L4.44144 8.87715C3.78189 8.01242 3.37553 6.94137 3.33718 5.7716C3.2391 2.78017 5.58462 0.275638 8.57604 0.177559C11.5674 0.0794806 14.072 2.425 14.1701 5.41643C14.2681 8.40784 11.9226 10.9124 8.93121 11.0105C7.76144 11.0488 6.66608 10.7135 5.76 10.112ZM8.87202 9.20498C10.8663 9.1396 12.43 7.46987 12.3646 5.47562C12.2992 3.48134 10.6295 1.91766 8.63523 1.98304C6.64099 2.04843 5.07728 3.71812 5.14266 5.7124C5.20805 7.70665 6.87777 9.27037 8.87202 9.20498Z" fill="#A6A6A6"/>
</svg>
