<svg width="20" height="19" viewBox="0 0 20 19" fill="none" xmlns="http://www.w3.org/2000/svg">
<path fill-rule="evenodd" clip-rule="evenodd" d="M0 2.72727C0 2.2252 0.402418 1.81818 0.908142 1.81818H1.81913C2.32068 1.81818 2.72727 2.2217 2.72727 2.72727C2.72727 3.22935 2.32485 3.63636 1.81913 3.63636H0.908142C0.406589 3.63636 0 3.23285 0 2.72727ZM10 2.72727C10 2.2252 10.4044 1.81818 10.9051 1.81818H19.0949C19.5948 1.81818 20 2.2217 20 2.72727C20 3.22935 19.5956 3.63636 19.0949 3.63636H10.9051C10.4052 3.63636 10 3.23285 10 2.72727ZM6.36364 3.63636C5.86156 3.63636 5.45455 3.22935 5.45455 2.72727C5.45455 2.2252 5.86156 1.81818 6.36364 1.81818C6.86571 1.81818 7.27273 2.2252 7.27273 2.72727C7.27273 3.22935 6.86571 3.63636 6.36364 3.63636ZM6.36364 5.45455C4.85741 5.45455 3.63636 4.2335 3.63636 2.72727C3.63636 1.22104 4.85741 0 6.36364 0C7.86987 0 9.09091 1.22104 9.09091 2.72727C9.09091 4.2335 7.86987 5.45455 6.36364 5.45455ZM0 15.4545C0 14.9525 0.402418 14.5455 0.908142 14.5455H1.81913C2.32068 14.5455 2.72727 14.949 2.72727 15.4545C2.72727 15.9566 2.32485 16.3636 1.81913 16.3636H0.908142C0.406589 16.3636 0 15.9601 0 15.4545ZM10 15.4545C10 14.9525 10.4044 14.5455 10.9051 14.5455H19.0949C19.5948 14.5455 20 14.949 20 15.4545C20 15.9566 19.5956 16.3636 19.0949 16.3636H10.9051C10.4052 16.3636 10 15.9601 10 15.4545ZM6.36364 16.3636C5.86156 16.3636 5.45455 15.9566 5.45455 15.4545C5.45455 14.9525 5.86156 14.5455 6.36364 14.5455C6.86571 14.5455 7.27273 14.9525 7.27273 15.4545C7.27273 15.9566 6.86571 16.3636 6.36364 16.3636ZM6.36364 18.1818C4.85741 18.1818 3.63636 16.9608 3.63636 15.4545C3.63636 13.9483 4.85741 12.7273 6.36364 12.7273C7.86987 12.7273 9.09091 13.9483 9.09091 15.4545C9.09091 16.9608 7.86987 18.1818 6.36364 18.1818ZM0 9.09091C0 8.58883 0.41424 8.18182 0.904907 8.18182H8.186C8.68577 8.18182 9.09091 8.58533 9.09091 9.09091C9.09091 9.59299 8.67667 10 8.186 10H0.904907C0.405141 10 0 9.59649 0 9.09091ZM16.3636 9.09091C16.3636 8.58883 16.7667 8.18182 17.2812 8.18182H19.0824C19.5892 8.18182 20 8.58533 20 9.09091C20 9.59299 19.597 10 19.0824 10H17.2812C16.7745 10 16.3636 9.59649 16.3636 9.09091ZM12.7273 10C12.2252 10 11.8182 9.59299 11.8182 9.09091C11.8182 8.58883 12.2252 8.18182 12.7273 8.18182C13.2294 8.18182 13.6364 8.58883 13.6364 9.09091C13.6364 9.59299 13.2294 10 12.7273 10ZM12.7273 11.8182C11.221 11.8182 10 10.5971 10 9.09091C10 7.58468 11.221 6.36364 12.7273 6.36364C14.2335 6.36364 15.4545 7.58468 15.4545 9.09091C15.4545 10.5971 14.2335 11.8182 12.7273 11.8182Z" fill="#333333" fill-opacity="0.5"/>
</svg>
