<svg width="21" height="24" viewBox="0 0 21 24" fill="none" xmlns="http://www.w3.org/2000/svg">
<path d="M14.6588 23.1767H6.32938C4.40895 23.1767 2.84699 21.6392 2.84699 19.7499V9.76059C1.68899 9.35092 0.858816 8.25959 0.858816 6.98094V6.91915C0.858816 5.29067 2.20519 3.9658 3.86011 3.9658H7.06709C7.25449 2.26774 8.71953 0.941406 10.4941 0.941406C12.2687 0.941406 13.7337 2.26774 13.9211 3.9658H17.1281C18.783 3.9658 20.1294 5.29067 20.1294 6.91915V6.98094C20.1294 8.25959 19.2992 9.35092 18.1412 9.76059V19.7499C18.1412 21.6392 16.5793 23.1767 14.6588 23.1767ZM4.42922 19.7499C4.42922 20.7809 5.28164 21.6197 6.32938 21.6197H14.6588C15.7066 21.6197 16.559 20.7809 16.559 19.7499V9.93381H4.42872V19.7499H4.42922ZM10.4941 2.49836C9.59372 2.49836 8.84018 3.12942 8.66663 3.9658H12.3221C12.148 3.12942 11.3945 2.49836 10.4941 2.49836ZM18.5472 6.91915C18.5472 6.14894 17.9108 5.52275 17.1281 5.52275H13.1503H7.83744H3.85962C3.0774 5.52275 2.44055 6.14894 2.44055 6.91915V6.98094C2.44055 7.75115 3.0769 8.37734 3.85962 8.37734H17.1281C17.9103 8.37734 18.5472 7.75115 18.5472 6.98094V6.91915Z" fill="black"/>
<path d="M12.5411 19.4082C12.104 19.4082 11.75 19.0599 11.75 18.6297V12.924C11.75 12.4939 12.104 12.1455 12.5411 12.1455C12.9782 12.1455 13.3322 12.4939 13.3322 12.924V18.6297C13.3322 19.0594 12.9782 19.4082 12.5411 19.4082Z" fill="black"/>
<path d="M8.4471 19.4082C8.01001 19.4082 7.65599 19.0599 7.65599 18.6297V12.924C7.65599 12.4939 8.01001 12.1455 8.4471 12.1455C8.8842 12.1455 9.23822 12.4939 9.23822 12.924V18.6297C9.23822 19.0594 8.8837 19.4082 8.4471 19.4082Z" fill="black"/>
</svg>
